<svg width="63" height="63" viewBox="0 0 63 63" fill="none" xmlns="http://www.w3.org/2000/svg">
<g clip-path="url(#clip0_223_362)">
<path d="M59.4421 8.46907L56.75 6.0985L59.4421 3.72841C59.8607 3.35927 60.004 2.78393 59.8074 2.26194C59.6098 1.73948 59.122 1.40206 58.564 1.40206H47.4234V0.92333C47.4234 0.41336 47.0101 0 46.5001 0C45.9901 0 45.5768 0.41336 45.5768 0.92333V13.376L37.9935 17.4938C37.9517 17.1602 37.8517 16.8324 37.6936 16.5238L36.6251 14.4378C35.8917 13.0055 34.1296 12.4378 32.6982 13.1708L31.872 13.5938C31.1779 13.9495 30.6641 14.5531 30.4247 15.2953C30.1854 16.0369 30.2493 16.8276 30.605 17.5212L31.6735 19.6077C31.9229 20.0946 32.2916 20.4801 32.7251 20.7502C32.158 21.5139 31.8888 22.4531 31.6119 23.4288L31.4129 24.1335C31.274 24.6242 31.5595 25.1347 32.0503 25.2731C32.1339 25.2971 32.2185 25.3082 32.3017 25.3082C32.7045 25.3082 33.0746 25.0429 33.1899 24.6358L33.3889 23.9326C33.7936 22.5055 34.0421 21.7413 34.8333 21.3116L36.2517 20.5411L36.4266 20.4517C36.4848 20.4219 36.5391 20.3883 36.5944 20.3551L46.7034 14.8656C46.6395 16.1292 45.9594 17.3231 44.8394 18.0033L38.2656 21.9975C38.2579 22.0018 38.2502 22.0061 38.243 22.0109L36.1969 23.2539C35.7614 23.5187 35.6225 24.0869 35.8873 24.5228C36.1368 24.9338 36.6559 25.0799 37.0793 24.8737L35.5268 29.5668L34.392 30.032L31.3062 31.2966L32.1954 28.1532C32.3339 27.6624 32.0488 27.152 31.5581 27.0131C31.0669 26.8737 30.5569 27.1597 30.418 27.6504L29.0131 32.6189C28.9948 32.6828 28.9828 32.753 28.9799 32.8198L28.6122 39.5739C28.6011 39.8315 28.6559 40.3184 28.5367 40.5698L24.4531 49.161H21.4856C19.7471 49.161 18.333 50.5751 18.333 52.3131V54.9783C17.935 54.7961 17.4933 54.6942 17.0275 54.6942H9.49142C7.75339 54.6942 6.33931 56.1078 6.33931 57.8463V61.1532H4.12255C3.61258 61.1532 3.19922 61.5666 3.19922 62.0765C3.19922 62.5865 3.61258 62.9999 4.12255 62.9999H58.563C59.073 62.9999 59.4863 62.5865 59.4863 62.0765C59.4863 61.5666 59.073 61.1532 58.563 61.1532H56.1617V37.3538C56.1617 35.6157 54.7476 34.2017 53.0096 34.2017H47.4234V18.0936C48.4472 16.706 48.8264 14.8872 48.3511 13.1588C48.2766 12.8872 48.0819 12.6642 47.8224 12.5541C47.695 12.4998 47.5585 12.4758 47.4234 12.4811V10.7954H58.5635C59.122 10.7954 59.6098 10.458 59.8069 9.93602C60.004 9.41403 59.8607 8.83821 59.4421 8.46907ZM32.1825 15.8624C32.2704 15.5899 32.4588 15.3679 32.7136 15.2376L33.5398 14.8146C33.6956 14.7348 33.8619 14.6969 34.0262 14.6969C34.4156 14.6969 34.7919 14.9098 34.9813 15.2794L36.0503 17.3659C36.2997 17.8533 36.1382 18.444 35.6946 18.7425L35.3937 18.9054L34.7588 19.2308C34.2334 19.5 33.5864 19.2914 33.3173 18.7656L32.2483 16.6795C32.1181 16.4248 32.0945 16.1345 32.1825 15.8624ZM30.3272 49.445C30.0133 49.3018 29.672 49.2081 29.3135 49.1749L30.3272 47.8286V49.445ZM34.7112 42.005C35.1553 41.473 35.2779 40.8515 35.3769 40.3506C35.4019 40.2314 35.8575 37.7426 35.8575 37.7426C35.8575 37.7426 36.2887 38.0113 36.3339 38.0305C36.3651 38.0445 36.3872 38.0752 36.3906 38.1113L36.8928 43.2172H33.7984L34.7112 42.005ZM40.1714 36.9087L39.3918 43.2129H38.7482L38.2286 37.9306C38.1622 37.2538 37.7479 36.6631 37.1409 36.3694L36.2122 35.7806L36.8308 32.3521C36.8308 32.3521 39.4369 35.448 39.4975 35.5268C40.0368 36.2281 40.2214 36.5088 40.1714 36.9087ZM30.1979 41.3773C30.3844 40.8159 30.4709 40.2444 30.4564 39.6633L30.7919 33.5033L35.0625 31.7532L34.2863 36.0531C34.2839 36.0647 34.2815 36.0767 34.28 36.0882L33.6379 39.6436C33.5542 40.0118 33.4812 40.5703 33.2514 40.8736L27.0121 49.161H26.4978L30.1979 41.3773ZM8.18597 57.8459C8.18597 57.1263 8.7714 56.5409 9.49142 56.5409H17.0275C17.7476 56.5409 18.3335 57.1263 18.3335 57.8459V61.1532H8.18597V57.8459ZM20.1797 57.8459V52.3131C20.1797 51.5931 20.7656 51.0076 21.4856 51.0076H29.0217C29.7417 51.0076 30.3272 51.5931 30.3272 52.3131V61.1532H20.1801V57.8459H20.1797ZM54.315 37.3538V61.1532H44.168V55.6171C44.168 55.1071 43.7546 54.6937 43.2446 54.6937C42.7342 54.6937 42.3208 55.1071 42.3208 55.6171V61.1532H32.1738V46.3689C32.1738 45.6493 32.7592 45.0639 33.4793 45.0639H41.0154C41.7354 45.0639 42.3208 45.6493 42.3208 46.3689V50.9975C42.3208 51.5075 42.7342 51.9209 43.2442 51.9209C43.7546 51.9209 44.1675 51.5075 44.1675 50.9975V37.3538C44.1675 36.6338 44.7534 36.0483 45.4734 36.0483H46.4905C46.4934 36.0483 46.4967 36.0488 46.5001 36.0488C46.503 36.0488 46.5063 36.0483 46.5092 36.0483H53.0091C53.7291 36.0483 54.315 36.6343 54.315 37.3538ZM45.4734 34.2017C43.7354 34.2017 42.3213 35.6157 42.3213 37.3538V43.5013C41.9906 43.3504 41.6301 43.2547 41.2509 43.2269L42.0041 37.1361C42.1521 35.9488 41.5465 35.162 40.9611 34.4007C40.8991 34.3199 37.3101 30.0585 37.3101 30.0585L39.5119 23.4014L45.5768 19.7168V34.2017H45.4734ZM47.4234 8.94828V3.2492H57.1917L55.0879 5.10163C54.8014 5.35397 54.637 5.71734 54.637 6.09898C54.637 6.48062 54.8014 6.84399 55.0879 7.09633L57.1917 8.94876H47.4234V8.94828Z" fill="#FD3B3B"/>
</g>
<defs>
<clipPath id="clip0_223_362">
<rect width="63" height="63" fill="white"/>
</clipPath>
</defs>
</svg>
