<svg width="63" height="63" viewBox="0 0 63 63" fill="none" xmlns="http://www.w3.org/2000/svg">
<path d="M31.5 5.90625C31.2389 5.90625 30.9885 5.80254 30.8039 5.61793C30.6193 5.43333 30.5156 5.18295 30.5156 4.92188V2.95312C30.5156 2.69205 30.6193 2.44167 30.8039 2.25707C30.9885 2.07246 31.2389 1.96875 31.5 1.96875C31.7611 1.96875 32.0115 2.07246 32.1961 2.25707C32.3807 2.44167 32.4844 2.69205 32.4844 2.95312V4.92188C32.4844 5.18295 32.3807 5.43333 32.1961 5.61793C32.0115 5.80254 31.7611 5.90625 31.5 5.90625Z" fill="#FD3B3B"/>
<path d="M23.1327 8.14767C22.9598 8.14784 22.7898 8.10244 22.64 8.01603C22.4902 7.92963 22.3658 7.80527 22.2793 7.65548L21.2949 5.95055C21.1664 5.72458 21.1325 5.45696 21.2007 5.2061C21.2688 4.95524 21.4333 4.7415 21.6584 4.61153C21.8836 4.48155 22.1509 4.4459 22.4022 4.51234C22.6536 4.57878 22.8684 4.74193 22.9998 4.96617L23.9842 6.67111C24.0706 6.82068 24.1161 6.99034 24.1161 7.16305C24.1161 7.33575 24.0707 7.50543 23.9845 7.65505C23.8982 7.80466 23.7741 7.92894 23.6246 8.01541C23.4751 8.10188 23.3054 8.1475 23.1327 8.14767Z" fill="#FD3B3B"/>
<path d="M39.8672 8.14767C39.6944 8.1475 39.5248 8.10188 39.3753 8.01541C39.2258 7.92894 39.1017 7.80466 39.0154 7.65505C38.9291 7.50543 38.8837 7.33575 38.8838 7.16305C38.8838 6.99034 38.9293 6.82068 39.0157 6.67111L40 4.96617C40.1315 4.74193 40.3463 4.57878 40.5976 4.51234C40.8489 4.4459 41.1163 4.48155 41.3414 4.61153C41.5666 4.7415 41.7311 4.95524 41.7992 5.2061C41.8673 5.45696 41.8335 5.72458 41.705 5.95055L40.7206 7.65548C40.6341 7.80527 40.5097 7.92963 40.3599 8.01603C40.2101 8.10244 40.0401 8.14784 39.8672 8.14767Z" fill="#FD3B3B"/>
<path d="M58.7918 23.0019C58.8147 22.8266 58.8262 22.65 58.8262 22.4733C58.8227 21.5712 58.5104 20.6976 57.9415 19.9975C57.3726 19.2975 56.5812 18.8133 55.6989 18.6254C54.6901 18.4377 53.6477 18.6413 52.7837 19.1949C51.9197 19.7484 51.299 20.6102 51.0477 21.6051L47.626 33.6892C47.249 33.771 46.8861 33.908 46.5491 34.0958L37.8473 39.1968C36.5165 39.9808 35.4129 41.0978 34.6452 42.4379C33.8774 43.7781 33.472 45.295 33.4688 46.8395V59.0625C33.4688 59.3236 33.5725 59.5739 33.7571 59.7586C33.9417 59.9432 34.1921 60.0469 34.4531 60.0469C34.7142 60.0469 34.9646 59.9432 35.1492 59.7586C35.3338 59.5739 35.4375 59.3236 35.4375 59.0625V46.8395C35.44 45.6383 35.7554 44.4585 36.3526 43.4162C36.9499 42.374 37.8083 41.5054 38.8434 40.8959L47.5394 35.7978C47.7634 35.6665 48.0111 35.5808 48.2684 35.5456C48.5256 35.5104 48.7873 35.5265 49.0383 35.5928C49.2893 35.6592 49.5247 35.7746 49.731 35.9323C49.9372 36.09 50.1102 36.2869 50.2401 36.5118C50.3699 36.7366 50.454 36.985 50.4874 37.2424C50.5209 37.4999 50.5031 37.7614 50.4351 38.012C50.367 38.2626 50.2501 38.4972 50.091 38.7024C49.932 38.9076 49.7339 39.0793 49.5082 39.2077L43.8667 42.465C43.7538 42.5291 43.6548 42.615 43.5753 42.7176C43.4957 42.8202 43.4373 42.9375 43.4032 43.0628C43.3692 43.1881 43.3603 43.3188 43.3771 43.4476C43.3938 43.5763 43.4358 43.7005 43.5007 43.8129C43.5657 43.9253 43.6522 44.0238 43.7553 44.1026C43.8584 44.1815 43.9761 44.2392 44.1016 44.2724C44.2271 44.3055 44.358 44.3136 44.4866 44.296C44.6152 44.2784 44.7391 44.2355 44.8511 44.1699L50.4925 40.9126C51.2985 40.4496 51.9136 39.715 52.2279 38.8403C52.5422 37.9655 52.5353 37.0075 52.2083 36.1374L54.9104 26.0692C55.0329 25.5597 55.3426 25.1149 55.7779 24.8231C56.2132 24.5314 56.7423 24.414 57.2601 24.4942C57.7004 24.5875 58.0957 24.8283 58.3805 25.1768C58.6653 25.5254 58.8226 25.9607 58.8262 26.4108C58.8276 26.5839 58.8057 26.7563 58.7613 26.9236L54.4802 42.902C54.3304 43.4596 54.0207 43.9613 53.5894 44.3451L46.934 50.2612C46.4139 50.7233 45.9977 51.2905 45.7128 51.9253C45.4279 52.56 45.2808 53.248 45.2812 53.9437V59.0625C45.2812 59.3236 45.385 59.5739 45.5696 59.7586C45.7542 59.9432 46.0046 60.0469 46.2656 60.0469C46.5267 60.0469 46.7771 59.9432 46.9617 59.7586C47.1463 59.5739 47.25 59.3236 47.25 59.0625V53.9437C47.25 53.5267 47.3384 53.1145 47.5093 52.7341C47.6801 52.3537 47.9296 52.0138 48.2413 51.7368L54.8986 45.8197C55.6178 45.1791 56.1332 44.3416 56.3811 43.4109L60.6621 27.4345C60.7518 27.1004 60.7965 26.7558 60.795 26.4098C60.7906 25.7157 60.603 25.0351 60.2513 24.4367C59.8995 23.8383 59.3961 23.3434 58.7918 23.0019ZM53.0096 25.5613L50.6815 34.2316C50.3648 34.0213 50.0193 33.8579 49.6558 33.7463L52.9456 22.1307C53.0702 21.622 53.3806 21.1783 53.8158 20.8868C54.251 20.5954 54.7794 20.4773 55.2973 20.5557C55.7372 20.649 56.132 20.8902 56.4159 21.2391C56.6997 21.588 56.8556 22.0235 56.8575 22.4733V22.4871C55.9689 22.5097 55.112 22.8221 54.4174 23.3767C53.7228 23.9313 53.2284 24.6978 53.0096 25.5593V25.5613Z" fill="#FD3B3B"/>
<path d="M25.1527 39.1968L16.4449 34.0928C16.1099 33.9057 15.749 33.7694 15.3739 33.6883L11.9562 21.6169C11.7074 20.6186 11.0868 19.753 10.2212 19.197C9.35566 18.641 8.3104 18.4365 7.29909 18.6254C6.41726 18.8138 5.62642 19.2983 5.0579 19.9982C4.48938 20.6982 4.17737 21.5715 4.1737 22.4733C4.17368 22.65 4.18519 22.8266 4.20816 23.0019C3.44945 23.4284 2.85401 24.095 2.51545 24.8969C2.17689 25.6987 2.11442 26.5904 2.33784 27.4316L6.61889 43.4109C6.86788 44.3399 7.38361 45.1757 8.10234 45.8148L14.7587 51.7309C15.0711 52.0086 15.321 52.3494 15.4919 52.7309C15.6628 53.1124 15.7507 53.5258 15.75 53.9437V59.0625C15.75 59.3236 15.8537 59.574 16.0383 59.7586C16.2229 59.9432 16.4733 60.0469 16.7343 60.0469C16.9954 60.0469 17.2458 59.9432 17.4304 59.7586C17.615 59.574 17.7187 59.3236 17.7187 59.0625V53.9437C17.7186 53.2486 17.5713 52.5614 17.2864 51.9274C17.0015 51.2933 16.5856 50.7268 16.0659 50.2651L9.41156 44.349C8.97954 43.9656 8.66946 43.4639 8.51972 42.906L4.23769 26.9217C4.17025 26.6632 4.15595 26.3937 4.19564 26.1295C4.23533 25.8653 4.32819 25.6119 4.46861 25.3846C4.60903 25.1573 4.79408 24.9609 5.01258 24.8072C5.23108 24.6534 5.47849 24.5456 5.73984 24.4903C6.25772 24.4098 6.78692 24.5271 7.22226 24.8189C7.65761 25.1107 7.96721 25.5556 8.08955 26.0653L10.7917 36.1335C10.4647 37.0036 10.4577 37.9616 10.7721 38.8363C11.0864 39.7111 11.7015 40.4456 12.5074 40.9087L18.1489 44.166C18.2609 44.2316 18.3847 44.2745 18.5134 44.292C18.642 44.3096 18.7728 44.3016 18.8983 44.2684C19.0238 44.2352 19.1415 44.1776 19.2447 44.0987C19.3478 44.0198 19.4343 43.9214 19.4992 43.8089C19.5641 43.6965 19.6061 43.5724 19.6229 43.4436C19.6396 43.3149 19.6307 43.1841 19.5967 43.0588C19.5627 42.9336 19.5042 42.8162 19.4247 42.7136C19.3452 42.611 19.2461 42.5252 19.1332 42.461L13.4918 39.2077C13.1071 38.9872 12.8083 38.643 12.6442 38.2311C12.4801 37.8191 12.4603 37.3638 12.588 36.9392C12.7158 36.5146 12.9835 36.1457 13.3476 35.8927C13.7117 35.6397 14.1508 35.5174 14.5933 35.5458H14.6012C14.9012 35.5611 15.1935 35.6464 15.4546 35.7948L24.1565 40.8959C25.1916 41.5054 26.0501 42.374 26.6473 43.4162C27.2445 44.4585 27.5599 45.6383 27.5625 46.8395V59.0625C27.5625 59.3236 27.6662 59.574 27.8508 59.7586C28.0354 59.9432 28.2858 60.0469 28.5468 60.0469C28.8079 60.0469 29.0583 59.9432 29.2429 59.7586C29.4275 59.574 29.5312 59.3236 29.5312 59.0625V46.8395C29.528 45.295 29.1225 43.7781 28.3548 42.4379C27.587 41.0978 26.4834 39.9808 25.1527 39.1968ZM12.3184 34.2307L9.99038 25.5593C9.77242 24.6976 9.27859 23.9308 8.5842 23.3759C7.88981 22.8211 7.03299 22.5086 6.14442 22.4861V22.4733C6.14556 22.0233 6.30082 21.5872 6.58435 21.2378C6.86789 20.8884 7.26257 20.6466 7.70269 20.5528C8.22342 20.4728 8.75517 20.5919 9.19206 20.8863C9.62896 21.1807 9.93893 21.6289 10.0603 22.1415L13.3441 33.7444C12.9804 33.8558 12.6349 34.0196 12.3184 34.2307Z" fill="#FD3B3B"/>
<path d="M38.989 34.9246C39.2993 34.9219 39.6047 34.8463 39.8805 34.704C40.1563 34.5616 40.3948 34.3564 40.5768 34.105C40.7587 33.8536 40.8791 33.563 40.9282 33.2565C40.9773 32.95 40.9537 32.6363 40.8593 32.3407L38.4407 24.8968L44.7722 20.2958C45.1083 20.0516 45.3585 19.7074 45.4871 19.3123C45.6156 18.9172 45.6159 18.4916 45.4879 18.0964C45.3599 17.7012 45.1101 17.3566 44.7743 17.1119C44.4385 16.8673 44.034 16.7351 43.6185 16.7344H35.7908L33.3702 9.29053C33.2407 8.89665 32.9902 8.55369 32.6544 8.31056C32.3185 8.06742 31.9145 7.93652 31.4999 7.93652C31.0853 7.93652 30.6812 8.06742 30.3454 8.31056C30.0095 8.55369 29.759 8.89665 29.6296 9.29053L27.209 16.7344H19.3812C18.9655 16.7345 18.5605 16.8662 18.2243 17.1106C17.888 17.3551 17.6378 17.6996 17.5094 18.095C17.381 18.4904 17.381 18.9163 17.5095 19.3116C17.638 19.707 17.8883 20.0515 18.2246 20.2958L24.5561 24.8968L22.1375 32.3407C22.0089 32.7361 22.0089 33.1621 22.1374 33.5576C22.2659 33.953 22.5163 34.2977 22.8527 34.5421C23.1891 34.7865 23.5943 34.9181 24.0101 34.918C24.4259 34.9179 24.831 34.7862 25.1674 34.5417L31.4999 29.9417L37.8324 34.5417C38.1674 34.7891 38.5725 34.9233 38.989 34.9246ZM31.4999 27.971C31.0839 27.9712 30.6786 28.1032 30.3422 28.348L24.0107 32.949L26.4294 25.5052C26.5578 25.1097 26.5577 24.6838 26.4291 24.2884C26.3006 23.893 26.0501 23.5484 25.7137 23.3041L19.3812 18.7031H27.209C27.6244 18.7027 28.029 18.5709 28.365 18.3265C28.7009 18.0822 28.9509 17.7378 29.0793 17.3427L31.4999 9.88608V9.89887L33.9185 17.3427C34.0469 17.7381 34.2973 18.0827 34.6336 18.3271C34.97 18.5715 35.375 18.7031 35.7908 18.7031H43.6185L37.287 23.3031C36.9502 23.5474 36.6994 23.892 36.5707 24.2876C36.442 24.6832 36.4418 25.1095 36.5704 25.5052L38.989 32.949L32.6575 28.35C32.3214 28.1045 31.9161 27.9718 31.4999 27.971Z" fill="#FD3B3B"/>
<path d="M14.8108 13.1572L16.5147 14.1415C16.6267 14.2072 16.7506 14.25 16.8792 14.2676C17.0078 14.2852 17.1386 14.2772 17.2642 14.244C17.3897 14.2108 17.5074 14.1531 17.6105 14.0743C17.7136 13.9954 17.8001 13.897 17.865 13.7845C17.9299 13.6721 17.972 13.5479 17.9887 13.4192C18.0054 13.2905 17.9966 13.1597 17.9625 13.0344C17.9285 12.9091 17.8701 12.7918 17.7905 12.6892C17.711 12.5866 17.6119 12.5008 17.4991 12.4366L15.7951 11.4522C15.5692 11.3237 15.3015 11.2899 15.0507 11.358C14.7998 11.4261 14.5861 11.5906 14.4561 11.8158C14.3261 12.0409 14.2905 12.3083 14.3569 12.5596C14.4234 12.8109 14.5865 13.0257 14.8108 13.1572Z" fill="#FD3B3B"/>
<path d="M45.9939 14.2734C46.1666 14.2734 46.3364 14.2279 46.486 14.1415L48.19 13.1572C48.4142 13.0257 48.5774 12.8109 48.6438 12.5596C48.7103 12.3083 48.6746 12.0409 48.5446 11.8158C48.4147 11.5906 48.2009 11.4261 47.9501 11.358C47.6992 11.2899 47.4316 11.3237 47.2056 11.4522L45.5017 12.4366C45.314 12.5449 45.1674 12.7122 45.0844 12.9124C45.0015 13.1126 44.987 13.3345 45.0431 13.5438C45.0991 13.7531 45.2227 13.9381 45.3946 14.07C45.5665 14.2019 45.7772 14.2734 45.9939 14.2734Z" fill="#FD3B3B"/>
</svg>
