<svg width="15" height="16" viewBox="0 0 15 16" fill="none" xmlns="http://www.w3.org/2000/svg">
<path opacity="0.5" d="M15 8C15.0002 8.34177 14.9798 8.6832 14.9391 9.02219C14.9391 9.02906 14.9376 9.03594 14.9367 9.04281C14.9055 9.30094 14.8626 9.555 14.8081 9.805C14.5579 10.9538 14.073 12.0296 13.3881 12.9555C12.7033 13.8814 11.8352 14.6347 10.846 15.1616C10.3005 15.4525 9.72335 15.6705 9.12773 15.8106L9.10547 15.8159C8.57807 15.9387 8.0398 16.0004 7.5 16C3.35801 16 0 12.4181 0 8C0 3.58187 3.35801 0 7.5 0C11.642 0 15 3.58187 15 8Z" fill="#222222"/>
<path d="M14.9391 9.02219C14.9391 9.02906 14.9376 9.03594 14.9367 9.04281C14.9055 9.30094 14.8626 9.555 14.8081 9.805C14.5579 10.9538 14.073 12.0296 13.3881 12.9555C12.7033 13.8814 11.8352 14.6347 10.846 15.1616C10.3005 15.4525 9.72335 15.6705 9.12773 15.8106L5.00977 12.4062L5.24414 11.1875C6.62109 6.96187 6.73828 3.47844 8.55469 4.15625L9.99023 3.625L14.9391 9.02219Z" fill="#222222"/>
<path d="M7.01367 5.2251V7.1126H9.63867V8.7376H7.01367V10.7751H9.99023V12.4001H5.00977V3.6001H9.99023V5.2251H7.01367Z" fill="white"/>
</svg>
