<svg width="15" height="16" viewBox="0 0 15 16" fill="none" xmlns="http://www.w3.org/2000/svg">
<path fill-rule="evenodd" clip-rule="evenodd" d="M3.20728 1.8492C2.67078 2.22434 2.18564 2.66787 1.7645 3.16715C3.48549 3.00737 5.67194 3.26827 8.21039 4.53751C10.9211 5.89283 13.1039 5.93866 14.623 5.64563C14.4852 5.22829 14.3117 4.82719 14.1061 4.44589C12.3671 4.62931 10.1377 4.38653 7.53959 3.08749C5.88974 2.26257 4.43541 1.92275 3.20728 1.8492ZM13.0903 2.99999C11.717 1.46562 9.72127 0.5 7.49999 0.5C6.84768 0.5 6.21475 0.58329 5.61138 0.739805C6.42858 0.962782 7.2967 1.28899 8.21039 1.74585C10.1126 2.69695 11.7549 3.00318 13.0903 2.99999ZM14.9478 7.11053C13.1126 7.47293 10.5783 7.39849 7.53959 5.87914C4.69874 4.45872 2.43766 4.47661 0.912713 4.81549C0.834001 4.83297 0.757141 4.85134 0.682137 4.87047C0.482483 5.30468 0.323113 5.76128 0.208763 6.23543C0.330895 6.20281 0.457099 6.17179 0.587311 6.14284C2.43734 5.73173 5.05128 5.74958 8.21039 7.32916C11.0513 8.74958 13.3123 8.7317 14.8373 8.39281C14.8896 8.38122 14.9411 8.36922 14.9917 8.35685C14.9972 8.23861 15 8.11962 15 8C15 7.69906 14.9823 7.40225 14.9478 7.11053ZM14.7468 9.93961C12.9294 10.2573 10.4689 10.1354 7.53959 8.6708C4.69874 7.25037 2.43766 7.26826 0.912713 7.60715C0.574219 7.68233 0.269715 7.77395 0.00109875 7.87066C0.000366376 7.91367 0 7.9568 0 8C0 12.1421 3.35786 15.5 7.49999 15.5C10.9714 15.5 13.892 13.1416 14.7468 9.93961Z" fill="#222222"/>
</svg>
