<svg width="44" height="46" viewBox="0 0 44 46" fill="none" xmlns="http://www.w3.org/2000/svg">
<path fill-rule="evenodd" clip-rule="evenodd" d="M22.0009 14.1395C26.3994 14.1395 30.3821 15.9224 33.2644 18.8057C36.1468 21.6881 37.9307 25.6708 37.9307 30.0702C37.9307 34.4697 36.1477 38.4514 33.2644 41.3338C30.3811 44.2161 26.3994 45.9991 22.0009 45.9991C17.6024 45.9991 13.6197 44.2161 10.7364 41.3338C7.85403 38.4514 6.07107 34.4687 6.07107 30.0702C6.07107 25.6717 7.85403 21.689 10.7364 18.8057C13.6197 15.9224 17.6024 14.1395 22.0009 14.1395ZM6.82639 5.4188C6.76567 5.22652 6.61663 5.06552 6.40963 4.99928C6.07199 4.89072 5.71043 5.07656 5.60187 5.4142L4.44543 8.99852L0.72495 8.99116C0.51059 8.97552 0.29255 9.06844 0.15731 9.2552C-0.0515301 9.54316 0.0128699 9.9452 0.30083 10.1531L3.35247 12.3611L2.18131 15.9418L2.18315 15.9427C2.12243 16.1313 2.14911 16.3456 2.27423 16.5186C2.48307 16.8047 2.88327 16.8682 3.16939 16.6594L6.21367 14.4385L9.21839 16.6299C9.38307 16.7698 9.61399 16.8231 9.83387 16.7514C10.1715 16.6419 10.3564 16.2785 10.246 15.9418L9.07487 12.3611L12.1265 10.1531L12.1256 10.1522C12.2866 10.0354 12.3906 9.84676 12.3906 9.6324C12.3906 9.2782 12.1035 8.99116 11.7493 8.99116L7.98191 8.99852L6.82639 5.4188ZM6.90275 9.83664L6.21275 7.7004L5.52275 9.83664C5.43995 10.0952 5.19799 10.2819 4.91187 10.2819L2.66523 10.2773L4.48499 11.5938C4.70487 11.753 4.80699 12.041 4.71867 12.3133L4.02039 14.4495L5.82543 13.133C6.04531 12.9665 6.35627 12.9545 6.59087 13.1256L8.40603 14.4495L7.71511 12.3372C7.61759 12.0732 7.70223 11.7668 7.94143 11.5938L9.76119 10.2773L7.54491 10.2819C7.26155 10.2957 6.99383 10.1191 6.90275 9.83664ZM38.4008 5.4188C38.3401 5.22652 38.191 5.06552 37.984 4.99928C37.6464 4.89072 37.2848 5.07656 37.1763 5.4142L36.0198 8.99852L32.2994 8.99116C32.085 8.97552 31.8669 9.06844 31.7317 9.2552C31.5229 9.54316 31.5873 9.9452 31.8752 10.1531L34.9269 12.3611L33.7557 15.9418L33.7575 15.9427C33.6968 16.1313 33.7235 16.3456 33.8486 16.5186C34.0575 16.8047 34.4577 16.8682 34.7438 16.6594L37.7881 14.4385L40.7928 16.6299C40.9575 16.7698 41.1884 16.8231 41.4083 16.7514C41.7459 16.6419 41.9308 16.2785 41.8204 15.9418L40.6493 12.3611L43.7009 10.1531L43.7 10.1522C43.861 10.0354 43.965 9.84676 43.965 9.6324C43.965 9.2782 43.6779 8.99116 43.3237 8.99116L39.5563 8.99852L38.4008 5.4188ZM38.4781 9.83664L37.7881 7.7004L37.0981 9.83664C37.0153 10.0952 36.7733 10.2819 36.4872 10.2819L34.2405 10.2773L36.0603 11.5938C36.2802 11.753 36.3823 12.041 36.294 12.3133L35.5957 14.4495L37.4007 13.133C37.6206 12.9665 37.9316 12.9545 38.1662 13.1256L39.9813 14.4495L39.2904 12.3372C39.1929 12.0732 39.2775 11.7668 39.5167 11.5938L41.3365 10.2773L39.1202 10.2819C38.8359 10.2957 38.5682 10.1191 38.4781 9.83664ZM22.6136 0.451724L23.7691 4.03144L27.5365 4.02408C27.8907 4.02408 28.1777 4.31112 28.1777 4.66532C28.1777 4.87876 28.0729 5.06828 27.9128 5.18512L27.9137 5.18604L24.8621 7.39404L26.0332 10.9747C26.1427 11.3123 25.9587 11.6748 25.6211 11.7843C25.4012 11.856 25.1703 11.8018 25.0056 11.6628L22.0009 9.4714L18.9566 11.6923C18.6705 11.9011 18.2694 11.8376 18.0614 11.5515C17.9354 11.3786 17.9087 11.1642 17.9704 10.9756L17.9685 10.9747L19.1397 7.39404L16.088 5.18604C15.8001 4.9772 15.7366 4.57516 15.9445 4.28812C16.0798 4.10136 16.2978 4.00844 16.5121 4.02408L20.2326 4.03144L21.39 0.447124C21.4986 0.109484 21.8601 -0.0763561 22.1978 0.0322039C22.4038 0.0984439 22.5529 0.259444 22.6136 0.451724ZM22.6909 4.86956L22.0009 2.73332L21.3109 4.86956C21.2281 5.12808 20.9861 5.31484 20.7 5.31484L18.4543 5.31024L20.274 6.62676C20.4939 6.78592 20.596 7.07388 20.5077 7.3462L19.8094 9.48244L21.6145 8.16592C21.8344 7.9994 22.1453 7.98744 22.3799 8.15856L24.1951 9.48244L23.5042 7.37012C23.4066 7.10608 23.4913 6.79972 23.7305 6.62676L25.5502 5.31024L23.334 5.31484C23.0487 5.32772 22.781 5.152 22.6909 4.86956ZM18.4754 27.4418L18.4883 35.7816H26.8649C27.1446 35.7816 27.4003 35.6877 27.5972 35.5267C27.795 35.3648 27.9385 35.1348 27.9947 34.8625L29.2394 28.8006C29.2762 28.6221 29.2744 28.451 29.2348 28.2918C29.1953 28.1327 29.118 27.98 29.0021 27.8383C28.888 27.6975 28.7546 27.5917 28.6074 27.5218C28.4611 27.4519 28.2937 27.4169 28.1087 27.4169H23.7093C23.3533 27.4169 23.0653 27.129 23.0653 26.7729C23.0653 26.68 23.0846 26.5926 23.1205 26.5126L23.2604 26.1151C23.9577 24.1298 24.3276 23.0764 23.3579 22.1757C23.2604 22.0846 23.1536 22.0239 23.0432 21.9935C22.9328 21.9632 22.8086 21.9613 22.6771 21.9898C22.5455 22.0184 22.4333 22.0708 22.3459 22.1435C22.2575 22.2171 22.1858 22.3164 22.1352 22.4397L20.4065 26.5779C20.0588 27.4096 19.2225 27.4684 18.4754 27.4418ZM17.2058 36.3372L17.1911 26.8327C17.0651 26.1556 15.9243 25.9992 15.9243 27.1924V36.0695C15.9243 37.1468 16.9179 37.3189 17.2058 36.3372ZM26.8649 37.0696C27.4464 37.0696 27.9836 36.8681 28.4077 36.5231C28.83 36.1781 29.1355 35.6914 29.2532 35.1201L30.498 29.0582C30.5734 28.6902 30.5679 28.3296 30.4833 27.9855C30.3986 27.6423 30.2367 27.3203 29.9993 27.0287C29.7611 26.7361 29.4777 26.5126 29.1566 26.3598C28.8356 26.2071 28.4832 26.1289 28.1097 26.1289H24.6164C25.3975 23.886 25.7305 22.6246 24.2337 21.2345C23.9844 21.0027 23.6946 20.8417 23.3809 20.7552C23.0672 20.6687 22.7369 20.6595 22.4057 20.7313C22.0736 20.803 21.7773 20.9484 21.5262 21.1572C21.2759 21.3652 21.079 21.632 20.9475 21.9466L19.2188 26.0848C19.1765 26.1869 18.7137 26.1694 18.3163 26.1492C17.5104 24.3423 14.6354 24.7296 14.6354 27.1934V36.0704C14.6354 38.4523 17.3705 39.0752 18.2988 37.0696H26.8649ZM22.0009 16.8277C18.3448 16.8277 15.0337 18.3098 12.638 20.7064C10.2414 23.103 8.75931 26.4132 8.75931 30.0693C8.75931 33.7254 10.2414 37.0364 12.638 39.4321C15.0346 41.8287 18.3448 43.3108 22.0009 43.3108C25.6569 43.3108 28.968 41.8287 31.3637 39.4321C33.7603 37.0355 35.2424 33.7254 35.2424 30.0693C35.2424 26.4132 33.7603 23.1021 31.3637 20.7064C28.968 18.3098 25.6569 16.8277 22.0009 16.8277ZM30.4529 21.6172C28.29 19.4543 25.3018 18.1157 22.0009 18.1157C18.6999 18.1157 15.7118 19.4534 13.5479 21.6172C11.385 23.7802 10.0464 26.7683 10.0464 30.0693C10.0464 33.3702 11.3841 36.3584 13.5479 38.5222C15.7108 40.6852 18.6999 42.0238 22.0009 42.0238C25.3018 42.0238 28.29 40.6861 30.4529 38.5222C32.6158 36.3593 33.9544 33.3702 33.9544 30.0693C33.9544 26.7683 32.6167 23.7802 30.4529 21.6172ZM32.3545 19.7156C29.7049 17.066 26.0443 15.4275 22.0009 15.4275C17.9575 15.4275 14.2968 17.066 11.6472 19.7156C8.99759 22.3652 7.35907 26.0259 7.35907 30.0693C7.35907 34.1127 8.99759 37.7734 11.6472 40.423C14.2968 43.0726 17.9575 44.7111 22.0009 44.7111C26.0443 44.7111 29.7049 43.0726 32.3545 40.423C35.0041 37.7734 36.6427 34.1127 36.6427 30.0693C36.6427 26.0259 35.0041 22.3652 32.3545 19.7156Z" fill="#222222"/>
</svg>
