<svg width="14" height="18" viewBox="0 0 14 18" fill="none" xmlns="http://www.w3.org/2000/svg">
<path d="M2.42566 12.3927L4.26103 11.2904L3.58585 7.63306L2.42566 12.3927Z" fill="#222222"/>
<path d="M7.0072 15.1272L8.84257 14.0243L8.16799 10.3682L7.0072 15.1272Z" fill="#222222"/>
<path d="M11.6049 4.24152L9.31323 2.87402L7.47846 3.9763L7.02276 1.50653L4.73169 0.139648L2.45557 1.50653L4.74664 2.87402L5.87752 9.00055L7.03711 4.2409L9.32878 5.60901L11.5894 17.8614L13.8655 16.4946L11.6049 4.24152Z" fill="#222222"/>
<path d="M7.03704 4.24096L5.87745 9.00062L4.74657 2.87409L2.45549 1.50659L0.134521 11.0253L2.42559 12.3928L3.58578 7.63312L4.71666 13.7596L7.00714 15.1271L8.16792 10.3681L9.29881 16.4946L11.5893 17.8615L9.32871 5.60908L7.03704 4.24096Z" fill="white"/>
<path d="M11.6569 17.9821L13.933 16.6146C13.9826 16.5849 14.0083 16.5262 13.9976 16.4681L11.7364 4.215C11.7292 4.17544 11.7053 4.14082 11.6712 4.12041L9.37955 2.75292C9.33769 2.72819 9.28626 2.72819 9.24439 2.75292L7.57349 3.7569L7.15307 1.48001C7.14589 1.44045 7.12197 1.40583 7.08788 1.38542L4.79741 0.0185465C4.75555 -0.00618217 4.70412 -0.00618217 4.66225 0.0185465L2.38613 1.38604C2.38434 1.38728 2.38314 1.38913 2.38135 1.39037C2.37537 1.39408 2.37058 1.39841 2.3652 1.40335C2.36221 1.40644 2.35862 1.40892 2.35563 1.41262C2.35085 1.41819 2.34666 1.42375 2.34307 1.42993C2.34068 1.43364 2.33829 1.43674 2.3365 1.44045C2.33291 1.44786 2.32992 1.45528 2.32752 1.46332C2.32633 1.46641 2.32513 1.46888 2.32454 1.47197C2.32454 1.47259 2.32394 1.47259 2.32394 1.47321L0.00416028 10.9913C-0.0107906 11.0519 0.0155228 11.1149 0.0675518 11.1458L2.35922 12.5133C2.3658 12.517 2.37298 12.5201 2.38015 12.5226C2.38195 12.5232 2.38374 12.5245 2.38613 12.5251C2.39869 12.5294 2.41125 12.5313 2.42381 12.5313C2.425 12.5313 2.4256 12.5319 2.4268 12.5319C2.42979 12.5319 2.43218 12.5306 2.43517 12.5306C2.44235 12.53 2.44952 12.5294 2.4561 12.5275C2.46029 12.5263 2.46447 12.5251 2.46866 12.5238C2.47225 12.5226 2.47584 12.522 2.47943 12.5207C2.48242 12.5195 2.48481 12.5177 2.4878 12.5158C2.49019 12.5146 2.49258 12.5139 2.49438 12.5127L4.16529 11.5087L4.5857 13.7856C4.59288 13.8252 4.6168 13.8598 4.65089 13.8802L6.94136 15.2471C6.94794 15.2508 6.95512 15.2539 6.9617 15.2564C6.96349 15.257 6.96528 15.2582 6.96768 15.2588C6.98024 15.2632 6.99279 15.265 7.00535 15.265C7.00655 15.265 7.00715 15.2656 7.00834 15.2656C7.01133 15.2656 7.01373 15.265 7.01672 15.2644C7.02389 15.2638 7.03107 15.2632 7.03765 15.2613L7.05021 15.2576C7.05379 15.2564 7.05738 15.2557 7.06097 15.2545C7.06396 15.2533 7.06635 15.2514 7.06934 15.2496C7.07173 15.2483 7.07413 15.2477 7.07592 15.2465L8.74743 14.2425L9.16785 16.52C9.17502 16.5596 9.19894 16.5942 9.23303 16.6146L11.5235 17.9815C11.5253 17.9827 11.5271 17.9827 11.5289 17.9839C11.5313 17.9852 11.5325 17.9864 11.5349 17.9876C11.5397 17.9901 11.5444 17.9907 11.5492 17.9926C11.5522 17.9938 11.5558 17.9951 11.5588 17.9957C11.569 17.9981 11.5797 18 11.5905 18C11.603 18 11.6162 17.9975 11.6282 17.9938C11.6323 17.9926 11.6359 17.9907 11.6395 17.9889C11.6449 17.9876 11.6515 17.9858 11.6569 17.9821ZM4.73222 0.300453L6.90189 1.59562L7.34623 4.00234C7.35461 4.04685 7.38271 4.08394 7.42278 4.10311C7.46285 4.12165 7.5083 4.1198 7.54598 4.09692L9.31377 3.03483L11.484 4.32999L13.7153 16.4235L11.6856 17.6427L9.46029 5.5825C9.45311 5.54293 9.42919 5.50831 9.3951 5.48791L7.10343 4.12041C7.09386 4.11485 7.0831 4.11052 7.07233 4.10743C7.06874 4.1062 7.06516 4.1062 7.06217 4.10558C7.05499 4.10434 7.04722 4.10249 7.04004 4.10249C7.03884 4.10249 7.03765 4.10187 7.03645 4.10187C7.03167 4.10187 7.02688 4.10311 7.0215 4.10311C7.01851 4.10372 7.01492 4.10372 7.01193 4.10434C7.00236 4.1062 6.99279 4.10867 6.98382 4.113C6.94495 4.12969 6.91625 4.16493 6.90548 4.20697L5.8942 8.35644L4.87754 2.84751C4.87037 2.80794 4.84645 2.77332 4.81236 2.75292L2.72283 1.50598L4.73222 0.300453ZM2.63432 12.1065L3.56785 8.2773L4.11086 11.22L2.63432 12.1065ZM7.21586 14.8409L8.14999 11.0117L8.69301 13.9538L7.21586 14.8409ZM8.97468 13.9983L8.3001 10.3415C8.28814 10.2772 8.23491 10.2303 8.17212 10.2284C8.10873 10.2265 8.05311 10.2704 8.03756 10.3335L6.92043 14.9139L4.83748 13.6706L4.39314 11.2639L3.71796 7.60654C3.70599 7.54224 3.65277 7.49526 3.58938 7.49341C3.57383 7.49341 3.55888 7.49588 3.54453 7.50082C3.50207 7.51566 3.46618 7.55152 3.45482 7.5985L2.33829 12.1795L0.289422 10.9567L2.54222 1.71864L4.62517 2.96188L5.7441 9.02596C5.75606 9.09026 5.80928 9.13724 5.87267 9.1391C5.93607 9.14281 5.99168 9.09706 6.00723 9.034L7.12376 4.45302L9.20732 5.69687L11.4015 17.5889L9.41842 16.4056L8.97468 13.9983Z" fill="#222222"/>
</svg>
