<svg width="63" height="63" viewBox="0 0 63 63" fill="none" xmlns="http://www.w3.org/2000/svg">
<path d="M45.2813 42.3281H50.0762C51.5183 42.3279 52.9253 41.8834 54.1058 41.0552C55.2864 40.227 56.1832 39.0552 56.6742 37.6993C57.1652 36.3434 57.2266 34.8691 56.8501 33.477C56.4736 32.085 55.6774 30.8426 54.5698 29.9191L46.5708 23.2529C45.3315 22.2223 43.7707 21.6575 42.1588 21.6562H20.8412C19.2293 21.6575 17.6686 22.2223 16.4293 23.2529L8.43022 29.9191C7.32266 30.8426 6.52646 32.085 6.14994 33.477C5.77342 34.8691 5.83485 36.3434 6.32587 37.6993C6.81689 39.0552 7.71367 40.227 8.89422 41.0552C10.0748 41.8834 11.4818 42.3279 12.9239 42.3281H17.7188C17.7201 44.2636 18.1345 46.1766 18.9345 47.9391C18.662 48.6807 18.6293 49.4892 18.841 50.2504L9.88316 46.1505C9.24335 45.8585 8.54049 45.7318 7.839 45.7819C7.13751 45.8321 6.45985 46.0576 5.86813 46.4377C5.27642 46.8178 4.7896 47.3404 4.45229 47.9575C4.11498 48.5746 3.93799 49.2665 3.93753 49.9698V50.1834C3.93453 50.9646 4.1505 51.731 4.56094 52.3956C4.97139 53.0603 5.55988 53.5966 6.25967 53.9437L17.7375 59.6827C19.5156 60.5677 21.4744 61.0292 23.4606 61.0312H59.0625V59.0625H45.2813V47.25H59.0625V45.2812H44.9604C45.1737 44.3114 45.2813 43.3212 45.2813 42.3281ZM43.3125 59.0625H23.4606C21.7797 59.0606 20.122 58.6694 18.6175 57.9196L7.14069 52.1807C6.76879 51.9965 6.45599 51.7117 6.23779 51.3587C6.01959 51.0056 5.90475 50.5985 5.90628 50.1834V49.9698C5.9053 49.5953 5.99869 49.2265 6.17782 48.8976C6.35696 48.5687 6.61607 48.2902 6.93124 48.0878C7.24641 47.8855 7.60747 47.7657 7.98111 47.7397C8.35475 47.7138 8.72892 47.7823 9.06908 47.9391L20.2624 53.0657C20.3907 53.1251 20.5305 53.156 20.6719 53.1562H30.5157C30.7767 53.1562 31.0271 53.0525 31.2117 52.8679C31.3963 52.6833 31.5 52.4329 31.5 52.1719C31.5 51.9108 31.3963 51.6604 31.2117 51.4758C31.0271 51.2912 30.7767 51.1875 30.5157 51.1875H22.6407C22.1185 51.1875 21.6178 50.9801 21.2485 50.6109C20.8793 50.2417 20.6719 49.7409 20.6719 49.2188C20.6719 48.6966 20.8793 48.1958 21.2485 47.8266C21.6178 47.4574 22.1185 47.25 22.6407 47.25H30.1879C30.3531 47.2502 30.5156 47.2085 30.6604 47.1289L30.9094 46.9921C32.8052 45.9487 34.9294 45.3898 37.0932 45.3651C39.257 45.3404 41.3934 45.8506 43.3125 46.8503V59.0625ZM19.6875 42.3281H21.6563C21.6589 43.3479 21.8186 44.3613 22.1298 45.3324C21.4682 45.4171 20.8394 45.6703 20.3037 46.0678C19.896 44.8631 19.6878 43.5999 19.6875 42.3281ZM34.3065 42.4394L37.7065 39.8918C38.0351 40.6743 38.6071 41.3301 39.3376 41.7621C39.3504 41.9511 39.375 42.1559 39.375 42.3301C39.3731 42.7333 39.3401 43.1358 39.2766 43.534C37.6607 43.3149 36.0199 43.3605 34.4187 43.6688C34.4372 43.5508 34.4487 43.4319 34.4532 43.3125C34.449 43.0157 34.3996 42.7212 34.3065 42.4394ZM31.5 40.3594C30.9186 40.3582 30.35 40.5295 29.866 40.8516L25.5131 37.5913C25.4944 37.5017 25.457 37.421 25.4323 37.3334C26.1661 36.4323 27.0914 35.7059 28.1409 35.207C29.1905 34.7082 30.3379 34.4493 31.5 34.4493C32.6621 34.4493 33.8096 34.7082 34.8592 35.207C35.9087 35.7059 36.834 36.4323 37.5677 37.3334C37.5431 37.421 37.5057 37.5017 37.487 37.5913L33.1341 40.8516C32.6501 40.5295 32.0814 40.3582 31.5 40.3594ZM32.4844 43.3125C32.4844 43.5072 32.4267 43.6975 32.3185 43.8594C32.2103 44.0213 32.0566 44.1474 31.8767 44.2219C31.6969 44.2964 31.4989 44.3159 31.308 44.278C31.117 44.24 30.9416 44.1462 30.804 44.0086C30.6663 43.8709 30.5726 43.6955 30.5346 43.5045C30.4966 43.3136 30.5161 43.1157 30.5906 42.9358C30.6651 42.7559 30.7913 42.6022 30.9531 42.494C31.115 42.3859 31.3053 42.3281 31.5 42.3281C31.7611 42.3281 32.0115 42.4318 32.1961 42.6164C32.3807 42.801 32.4844 43.0514 32.4844 43.3125ZM38.6259 35.5537C37.7094 34.5842 36.6047 33.812 35.3795 33.2842C34.1542 32.7564 32.8341 32.4842 31.5 32.4842C30.1659 32.4842 28.8459 32.7564 27.6206 33.2842C26.3953 33.812 25.2907 34.5842 24.3741 35.5537C23.8785 35.0804 23.2677 34.7451 22.6023 34.5811C23.7071 33.305 25.0735 32.2815 26.6087 31.58C28.1439 30.8785 29.8121 30.5154 31.5 30.5154C33.1879 30.5154 34.8561 30.8785 36.3914 31.58C37.9266 32.2815 39.293 33.305 40.3978 34.5811C39.7324 34.7451 39.1215 35.0804 38.6259 35.5537ZM25.2985 39.8918L28.6985 42.4394C28.5368 42.9219 28.508 43.4391 28.6152 43.9365C28.7225 44.434 28.9617 44.8934 29.3078 45.2665L24.2088 45.2812C23.8263 44.3435 23.6281 43.3409 23.625 42.3281C23.625 42.1509 23.6496 41.9491 23.6624 41.7601C24.3945 41.3295 24.9682 40.6743 25.2985 39.8918ZM43.094 44.5764C42.4793 44.3178 41.8482 44.0998 41.205 43.9238C41.2943 43.3965 41.3407 42.8629 41.3438 42.3281H43.3125C43.31 43.083 43.2351 43.8358 43.0891 44.5764H43.094ZM41.3438 40.3594C40.8216 40.3594 40.3209 40.152 39.9517 39.7827C39.5825 39.4135 39.375 38.9128 39.375 38.3906C39.375 37.8685 39.5825 37.3677 39.9517 36.9985C40.3209 36.6293 40.8216 36.4219 41.3438 36.4219H50.2032C50.4057 36.4222 50.6034 36.3601 50.7694 36.2439C50.9353 36.1278 51.0614 35.9633 51.1304 35.7729C51.1994 35.5824 51.208 35.3753 51.1549 35.1799C51.1019 34.9844 50.9899 34.81 50.8341 34.6805L44.9279 29.7586C44.7841 29.6386 44.6091 29.562 44.4233 29.538C44.2376 29.5139 44.0488 29.5433 43.8792 29.6228C43.7096 29.7023 43.5662 29.8285 43.4658 29.9867C43.3654 30.1448 43.3123 30.3283 43.3125 30.5156V34.4531H42.776C41.5137 32.6308 39.8284 31.1415 37.8646 30.113C35.9008 29.0844 33.7169 28.5471 31.5 28.5471C29.2831 28.5471 27.0993 29.0844 25.1355 30.113C23.1717 31.1415 21.4864 32.6308 20.224 34.4531H19.6875V30.5156C19.6878 30.3283 19.6346 30.1448 19.5343 29.9867C19.4339 29.8285 19.2905 29.7023 19.1209 29.6228C18.9513 29.5433 18.7625 29.5139 18.5767 29.538C18.391 29.562 18.2159 29.6386 18.0722 29.7586L12.1659 34.6805C12.0102 34.81 11.8981 34.9844 11.8451 35.1799C11.7921 35.3753 11.8007 35.5824 11.8697 35.7729C11.9387 35.9633 12.0648 36.1278 12.2307 36.2439C12.3966 36.3601 12.5944 36.4222 12.7969 36.4219H21.6563C22.1784 36.4219 22.6792 36.6293 23.0484 36.9985C23.4176 37.3677 23.625 37.8685 23.625 38.3906C23.625 38.9128 23.4176 39.4135 23.0484 39.7827C22.6792 40.152 22.1784 40.3594 21.6563 40.3594H12.9239C11.8864 40.3592 10.8741 40.0395 10.0248 39.4436C9.17552 38.8477 8.53041 38.0046 8.17726 37.0291C7.82411 36.0535 7.78007 34.9929 8.05114 33.9914C8.3222 32.99 8.8952 32.0963 9.69219 31.4321L17.6912 24.7659C18.5755 24.0289 19.6901 23.6252 20.8412 23.625H42.1588C43.3099 23.6252 44.4246 24.0289 45.3088 24.7659L53.3079 31.4321C54.1049 32.0963 54.6779 32.99 54.9489 33.9914C55.22 34.9929 55.1759 36.0535 54.8228 37.0291C54.4697 38.0046 53.8245 38.8477 52.9752 39.4436C52.1259 40.0395 51.1137 40.3592 50.0762 40.3594H41.3438ZM45.2813 34.4531V32.6173L47.4843 34.4531H45.2813ZM17.7188 32.6173V34.4531H15.5157L17.7188 32.6173Z" fill="#FD3B3B"/>
<path d="M49.2188 55.125H47.25V57.0938H49.2188V55.125Z" fill="#FD3B3B"/>
<path d="M40.3594 10.8281C40.3594 9.07591 39.8398 7.36304 38.8663 5.90612C37.8928 4.4492 36.5092 3.31368 34.8903 2.64313C33.2715 1.97258 31.4902 1.79714 29.7716 2.13898C28.0531 2.48082 26.4745 3.32459 25.2355 4.5636C23.9965 5.80261 23.1527 7.3812 22.8109 9.09975C22.469 10.8183 22.6445 12.5996 23.315 14.2185C23.9856 15.8373 25.1211 17.2209 26.578 18.1944C28.0349 19.1679 29.7478 19.6875 31.5 19.6875C33.8489 19.6849 36.1008 18.7507 37.7617 17.0898C39.4225 15.4289 40.3568 13.177 40.3594 10.8281ZM24.6094 10.8281C24.6094 9.46529 25.0135 8.13306 25.7707 6.9999C26.5278 5.86674 27.604 4.98355 28.8631 4.46202C30.1222 3.94048 31.5076 3.80403 32.8443 4.0699C34.1809 4.33578 35.4087 4.99205 36.3724 5.95572C37.3361 6.91939 37.9924 8.14718 38.2582 9.48383C38.5241 10.8205 38.3876 12.206 37.8661 13.4651C37.3446 14.7242 36.4614 15.8003 35.3282 16.5575C34.1951 17.3146 32.8628 17.7188 31.5 17.7188C29.6732 17.7164 27.9219 16.9897 26.6302 15.6979C25.3385 14.4062 24.6117 12.6549 24.6094 10.8281Z" fill="#FD3B3B"/>
</svg>
